<?xml version="1.0" encoding="UTF-8"?>
<!DOCTYPE svg PUBLIC "-//W3C//DTD SVG 1.1//EN" "http://www.w3.org/Graphics/SVG/1.1/DTD/svg11.dtd">
<!-- Creator: CorelDRAW (Versión de evaluación) -->
<svg xmlns="http://www.w3.org/2000/svg" xml:space="preserve" width="210mm" height="297mm" version="1.1" style="shape-rendering:geometricPrecision; text-rendering:geometricPrecision; image-rendering:optimizeQuality; fill-rule:evenodd; clip-rule:evenodd"
viewBox="0 0 21000 29700"
 xmlns:xlink="http://www.w3.org/1999/xlink"
 xmlns:xodm="http://www.corel.com/coreldraw/odm/2003">
 <defs>
  <style type="text/css">
   <![CDATA[
    .fil0 {fill:#373435}
    .fil1 {fill:#373435;fill-rule:nonzero}
   ]]>
  </style>
 </defs>
 <g id="Capa_x0020_1">
  <metadata id="CorelCorpID_0Corel-Layer"/>
  <path class="fil0" d="M16037.55 13368.4c26.22,220.8 39.37,442.96 39.37,665.32 0,3116.13 -2526.13,5642.26 -5642.26,5642.26 -3116.13,0 -5642.26,-2526.13 -5642.26,-5642.26 0,-229.85 14.04,-459.48 42.06,-687.61 0,0 345.09,2018.61 651.39,2294.29l339.15 -183.79 -35.02 840.63c0,0 43.78,507.89 709.28,1147.12 0,0 1327.63,-1183.24 3734.05,-1170.37 2406.42,12.87 4201.92,1102.15 4201.92,1102.15l161.66 -241.95c0,0 -3729.07,-2554.43 -7975.74,-1260.53l66.24 -713.5c0,0 4081.14,-1011.09 8217.7,1594.33 0,0 733.34,-637.02 1132.46,-3386.09zm-2700.9 4938.08c0,0 -3422.83,-1685.07 -5358.04,118.49l131.65 276.46c0,0 1448.11,-1500.79 4818.28,-144.82l210.64 -144.81 197.47 -105.32zm-6142.56 -593.7c0,0 2450.63,-2223.54 6907.18,-18.92l-331.17 274.39c0,0 -3529.27,-1892.38 -6396.23,0l-179.78 -255.47z"/>
  <path class="fil1" d="M16616.45 22501.11c-85.75,0 -159.44,-12.94 -220.38,-39.18 -61.3,-25.88 -109.84,-63.99 -145.98,-114.68 -36.14,-50.69 -62.36,-109.64 -79.01,-176.86 -16.3,-67.59 -24.8,-145.96 -24.8,-235.83l0 -661.45c0,-181.9 36.49,-319.59 109.48,-413.41 72.99,-93.83 193.45,-140.56 360.69,-140.56 166.88,0 286.99,47.09 360.34,141.64 73.33,94.18 109.83,231.86 109.83,412.33l0 662.17c0,181.9 -36.85,321.74 -110.54,419.16 -73.7,97.78 -193.46,146.67 -359.63,146.67zm-116.57 -212.81c30.82,14.74 69.45,21.93 116.57,21.93 47.12,0 86.1,-7.19 116.92,-21.93 30.83,-14.74 54.21,-37.39 70.16,-67.59 15.59,-30.19 26.57,-63.27 32.59,-99.22 5.67,-36.3 8.86,-81.24 8.86,-134.44l0 -764.63c0,-52.49 -3.19,-96.34 -8.86,-131.57 -6.02,-35.23 -17,-67.59 -32.59,-97.06 -15.95,-29.48 -39.33,-51.05 -70.16,-64.71 -30.82,-13.66 -69.8,-20.49 -116.92,-20.49 -47.12,0 -85.75,6.83 -116.57,20.49 -30.83,13.66 -54.21,35.23 -70.15,64.71 -15.95,29.47 -26.93,61.83 -32.6,97.06 -6.02,35.23 -8.86,79.08 -8.86,131.57l0 764.63c0,53.2 2.84,98.14 8.86,134.44 5.67,35.95 16.65,69.03 32.6,99.22 15.94,30.2 39.32,52.85 70.15,67.59z"/>
  <path class="fil1" d="M15075.19 22482.06l0 -1746.03 345.45 0c174.68,0 302.59,35.95 383.73,108.21 81.49,72.26 121.88,190.53 121.88,354.09 0,224.68 -70.87,360.57 -212.59,407.3l245.89 876.43 -232.42 0 -226.41 -819.27 -185.66 0 0 819.27 -239.87 0zm239.87 -994.34l90.36 0c104.16,0 178.92,-20.85 223.56,-62.55 44.65,-41.7 66.97,-117.55 66.97,-226.84 0,-106.05 -19.14,-180.46 -57.75,-223.24 -38.28,-43.14 -110.9,-64.35 -217.56,-64.35l-105.58 0 0 576.98z"/>
  <path class="fil1" d="M14347.44 22503.27c-156.25,0 -269.28,-50.33 -338.37,-150.27 -69.09,-99.93 -103.82,-248.04 -103.82,-443.96l0 -584.53c0,-79.8 4.25,-150.26 13.11,-210.66 8.51,-60.39 23.39,-116.11 44.65,-167.16 20.91,-51.4 48.9,-93.1 83.27,-125.46 34.72,-32.35 78.65,-57.52 132.15,-75.49 53.15,-17.62 115.86,-26.6 187.78,-26.6 159.09,0 273.54,40.98 343.69,122.94 69.79,82.32 104.52,211.38 104.52,387.89l0 63.99 -224.99 0 0 -54.65c0,-49.25 -1.42,-89.87 -4.25,-121.5 -2.83,-32 -8.5,-62.55 -17.01,-91.31 -8.86,-28.76 -21.26,-51.05 -37.55,-66.87 -16.3,-15.81 -37.56,-28.04 -63.78,-37.38 -26.21,-8.99 -58.82,-13.66 -97.43,-13.66 -29.77,0 -56.34,3.23 -79.02,10.06 -23.02,6.47 -42.16,15.46 -58.1,26.24 -15.95,10.79 -29.41,25.89 -40.04,45.3 -10.63,19.41 -19.14,38.47 -25.51,56.8 -6.03,18.69 -10.98,42.42 -14.53,71.9 -3.19,29.11 -5.31,55.36 -6.02,79.44 -0.71,23.73 -1.07,53.57 -1.07,89.52l0 646.71c0,134.09 15.95,230.07 47.83,288.31 31.54,58.24 92.48,87.36 182.48,87.36 89.99,0 151.64,-31.28 184.95,-94.55 32.95,-63.27 49.6,-164.64 49.6,-304.48l0 -122.23 -217.9 0 0 -172.55 436.15 0 0 865.64 -152.7 0 -23.03 -201.31c-51.73,148.47 -153.42,222.52 -305.06,222.52z"/>
  <path class="fil1" d="M12803.69 22482.06l367.43 -1746.03 231.71 0 367.43 1746.03 -228.54 0 -78.65 -440.37 -350.06 0 -81.85 440.37 -227.47 0zm340.5 -614l287.7 0 -144.21 -788.72 -143.49 788.72z"/>
  <polygon class="fil1" points="11569.62,22482.06 11569.62,20736.03 11809.49,20736.03 11809.49,22307.35 12248.48,22307.35 12248.48,22482.06 "/>
  <path class="fil1" d="M10428.73 22482.06l367.42 -1746.03 231.72 0 367.42 1746.03 -228.53 0 -78.65 -440.37 -350.07 0 -81.84 440.37 -227.47 0zm340.5 -614l287.69 0 -144.2 -788.72 -143.49 788.72z"/>
  <polygon class="fil1" points="10009.58,22482.06 10009.58,20736.03 10245.2,20736.03 10245.2,22482.06 "/>
  <path class="fil1" d="M9333.91 22501.11c-71.22,0 -133.93,-10.06 -188.14,-29.48 -53.86,-19.77 -97.79,-46.37 -132.15,-80.16 -34.37,-33.79 -62.36,-75.49 -83.98,-125.82 -21.97,-50.33 -36.85,-103.17 -45.36,-158.53 -8.15,-55.37 -12.39,-117.56 -12.39,-186.58l0 -616.88c0,-73.69 4.24,-139.48 13.1,-197 8.51,-57.51 23.75,-111.44 45.01,-161.05 21.61,-49.96 49.6,-90.95 83.97,-123.3 34.71,-32.35 79.01,-57.52 132.51,-75.85 53.5,-18.34 116.21,-27.32 187.43,-27.32 154.84,0 266.09,42.42 333.05,127.26 67.32,85.19 100.62,209.94 100.62,374.94l0 139.12 -227.11 0 0 -123.3c0,-26.6 -0.35,-47.45 -0.71,-62.55 -0.35,-15.1 -1.05,-33.79 -2.12,-56.44 -0.71,-22.29 -2.84,-39.91 -5.67,-52.49 -2.48,-12.94 -6.38,-27.68 -10.63,-44.57 -4.6,-16.54 -10.27,-29.84 -17.36,-39.19 -6.73,-9.7 -15.59,-19.77 -25.87,-30.55 -10.27,-11.15 -22.31,-19.06 -35.43,-24.45 -13.11,-5.03 -28.69,-9.71 -46.41,-12.94 -18.07,-3.6 -38.26,-5.39 -60.23,-5.39 -33.31,0 -62.36,3.59 -87.17,11.14 -25.15,7.19 -45.35,19.05 -61.29,34.51 -15.94,15.82 -29.05,33.43 -38.98,52.13 -9.92,19.05 -17.35,43.5 -22.32,73.33 -4.96,29.84 -8.15,58.6 -9.91,86.28 -1.78,27.68 -2.49,62.19 -2.49,102.81l0 690.94c0,131.21 16.3,222.52 48.54,273.92 32.6,51.05 90.35,76.58 173.62,76.58 31.53,0 59.16,-3.24 82.55,-10.43 23.03,-6.83 42.17,-18.69 57.05,-34.87 14.87,-15.82 26.57,-32.71 35.78,-50.33 8.86,-17.61 15.59,-41.34 19.49,-71.18 4.25,-29.83 6.73,-57.51 7.8,-82.68 1.05,-25.16 1.76,-58.24 1.76,-98.86l0 -128.69 227.11 0 0 129.77c0,66.51 -3.89,126.18 -12.39,179.03 -8.16,52.48 -22.33,101.73 -42.52,147.74 -20.2,46.02 -46.42,84.12 -79.01,114.32 -32.25,30.2 -74.06,53.92 -124.36,71.18 -50.67,17.26 -109.13,25.88 -175.39,25.88z"/>
  <polygon class="fil1" points="7782.02,22482.06 7782.02,20736.03 7945.01,20736.03 8433.96,21895.38 8433.96,20736.03 8634.15,20736.03 8634.15,22482.06 8480.73,22482.06 7984.34,21288.92 7984.34,22482.06 "/>
  <polygon class="fil1" points="6916.43,22482.06 6916.43,20736.03 7582.9,20736.03 7582.9,20916.14 7156.31,20916.14 7156.31,21493.11 7502.82,21493.11 7502.82,21666.74 7156.31,21666.74 7156.31,22307.35 7587.86,22307.35 7587.86,22482.06 "/>
  <polygon class="fil1" points="6241.83,22482.06 6241.83,20916.14 5927.19,20916.14 5927.19,20736.03 6784.63,20736.03 6784.63,20916.14 6481.69,20916.14 6481.69,22482.06 "/>
  <path class="fil1" d="M5357.46 22501.11c-85.74,0 -159.44,-12.94 -220.38,-39.18 -61.29,-25.88 -109.83,-63.99 -145.98,-114.68 -36.14,-50.69 -62.36,-109.64 -79,-176.86 -16.3,-67.59 -24.81,-145.96 -24.81,-235.83l0 -661.45c0,-181.9 36.5,-319.59 109.48,-413.41 72.99,-93.83 193.46,-140.56 360.69,-140.56 166.89,0 286.99,47.09 360.34,141.64 73.34,94.18 109.84,231.86 109.84,412.33l0 662.17c0,181.9 -36.86,321.74 -110.55,419.16 -73.69,97.78 -193.45,146.67 -359.63,146.67zm-116.56 -212.81c30.82,14.74 69.44,21.93 116.56,21.93 47.12,0 86.11,-7.19 116.93,-21.93 30.83,-14.74 54.2,-37.39 70.15,-67.59 15.59,-30.19 26.57,-63.27 32.59,-99.22 5.67,-36.3 8.87,-81.24 8.87,-134.44l0 -764.63c0,-52.49 -3.2,-96.34 -8.87,-131.57 -6.02,-35.23 -17,-67.59 -32.59,-97.06 -15.95,-29.48 -39.32,-51.05 -70.15,-64.71 -30.82,-13.66 -69.81,-20.49 -116.93,-20.49 -47.12,0 -85.74,6.83 -116.56,20.49 -30.83,13.66 -54.21,35.23 -70.16,64.71 -15.95,29.47 -26.93,61.83 -32.59,97.06 -6.03,35.23 -8.86,79.08 -8.86,131.57l0 764.63c0,53.2 2.83,98.14 8.86,134.44 5.66,35.95 16.64,69.03 32.59,99.22 15.95,30.2 39.33,52.85 70.16,67.59z"/>
  <path class="fil1" d="M3899.11 22482.06l0 -1746.03 426.6 0c149.52,0 257.58,40.63 324.91,122.59 66.96,81.6 100.62,201.67 100.62,359.48 0,142 -36.15,252.36 -108.42,331.81 -72.28,79.45 -177.52,118.99 -316.05,118.99l-187.78 0 0 813.16 -239.88 0zm239.88 -987.87l108.77 0c105.23,0 177.51,-19.05 217.19,-56.8 39.33,-38.1 59.17,-110.72 59.17,-218.21 0,-44.21 -1.06,-80.52 -3.19,-108.92 -2.12,-28.4 -6.73,-55.36 -14.17,-80.53 -7.09,-25.16 -16.65,-44.93 -28.34,-58.59 -12.05,-13.66 -28.34,-25.17 -49.25,-35.23 -21.26,-9.71 -45.71,-16.54 -74.06,-19.77 -27.99,-3.6 -62.71,-5.4 -104.17,-5.4l-111.95 0 0 583.45z"/>
  <path class="fil0" d="M6578.7 16277.99c0,0 1451.35,-824.64 3848.28,-384.83 0,0 -2605.84,-65.97 -3837.29,1077.52l-10.99 -692.69z"/>
  <path class="fil0" d="M8544.62 14682.88l-302.24 7.1c-8.46,-79.25 -12.7,-158.87 -12.7,-238.56 0,-1260.46 1039.07,-2282.27 2320.82,-2282.27 1636.5,0 2665.31,1622.27 2151.83,3137.24l-259.78 -96.55c35.33,-170.01 86.97,-333.44 98.6,-508.42 202.27,-3041.23 -4308.27,-2897.13 -3996.53,-18.54z"/>
  <rect class="fil0" x="10488.75" y="9171.43" width="173.9" height="2668.9" rx="57.78" ry="107.48"/>
  <rect class="fil0" transform="matrix(0.681411 0.135142 -0.146649 0.739432 11748.2 8721.76)" width="250.33" height="2065.19" rx="83.17" ry="83.17"/>
  <rect class="fil0" transform="matrix(0.542601 0.295581 -0.151572 0.278242 13040.1 9156.66)" width="250.33" height="2065.19" rx="83.17" ry="83.17"/>
  <rect class="fil0" transform="matrix(0.547271 0.0728928 -0.11778 0.398834 11251.6 11085.8)" width="250.33" height="2065.19" rx="83.17" ry="83.17"/>
  <rect class="fil0" transform="matrix(0.403742 0.229982 -0.112783 0.21649 11811.5 11614)" width="250.33" height="2065.19" rx="83.17" ry="83.17"/>
  <rect class="fil0" transform="matrix(0.427652 -0.359304 0.134557 0.160154 6593.87 9837.9)" width="250.33" height="2065.19" rx="83.17" ry="83.17"/>
  <rect class="fil0" transform="matrix(0.407764 -0.469261 0.15684 0.136286 5793.32 10674.1)" width="250.33" height="2065.19" rx="83.17" ry="83.17"/>
  <rect class="fil0" transform="matrix(0.33257 -0.609903 0.295031 0.160875 5189.2 11679.8)" width="250.33" height="2065.19" rx="83.17" ry="83.17"/>
  <rect class="fil0" transform="matrix(0.212624 -0.655474 0.319914 0.10194 4888.4 12815.9)" width="250.33" height="2065.19" rx="83.17" ry="83.17"/>
  <rect class="fil0" transform="matrix(0.0740313 -0.63566 0.183996 0.01839 5262.86 13864.1)" width="250.33" height="2065.19" rx="83.17" ry="83.17"/>
  <rect class="fil0" transform="matrix(-0.00881842 -0.511897 0.211516 -0.00419544 5544.43 14779)" width="250.33" height="2065.19" rx="83.17" ry="83.17"/>
  <rect class="fil0" transform="matrix(-0.044283 -0.510265 0.409358 -0.0259892 7039.38 14392.4)" width="250.33" height="2065.19" rx="83.17" ry="83.17"/>
  <rect class="fil0" transform="matrix(0.616283 -0.109382 0.060141 0.338849 9762.88 11227.9)" width="250.33" height="2065.19" rx="83.17" ry="83.17"/>
  <rect class="fil0" transform="matrix(0.577678 -0.121023 0.0760005 0.153743 9208.92 11813)" width="250.33" height="2065.19" rx="83.17" ry="83.17"/>
  <rect class="fil0" transform="matrix(0.546292 0.493754 -0.201601 0.39634 12359.3 10470.2)" width="250.33" height="2065.19" rx="83.17" ry="83.17"/>
  <rect class="fil0" transform="matrix(-0.144897 0.679404 -0.560201 -0.119475 14227.4 15277.7)" width="250.33" height="2065.19" rx="83.17" ry="83.17"/>
  <rect class="fil0" transform="matrix(0.13219 -0.68199 0.166142 0.0322033 14835.5 15601.3)" width="250.33" height="2065.19" rx="83.17" ry="83.17"/>
  <rect class="fil0" transform="matrix(0.101074 0.629578 -1.19657 0.1921 15587.3 13681.5)" width="250.33" height="2065.19" rx="83.17" ry="83.17"/>
  <rect class="fil0" transform="matrix(-0.0122375 0.694494 -0.995904 -0.030826 15307.7 14649.2)" width="250.33" height="2065.19" rx="83.17" ry="83.17"/>
  <rect class="fil0" transform="matrix(0.223495 0.704598 -0.595527 0.188898 15921.2 12643.9)" width="250.33" height="2065.19" rx="83.17" ry="83.17"/>
  <rect class="fil0" transform="matrix(0.222022 0.643745 -0.544094 0.187653 14117 13189.6)" width="250.33" height="2065.19" rx="83.17" ry="83.17"/>
  <rect class="fil0" transform="matrix(0.31388 0.619729 -0.349292 0.17691 14575.7 12198.4)" width="250.33" height="2065.19" rx="83.17" ry="83.17"/>
  <rect class="fil0" transform="matrix(0.508887 0.472883 -0.241387 0.259766 14124 9770.25)" width="250.33" height="2065.19" rx="83.17" ry="83.17"/>
  <rect class="fil0" transform="matrix(0.5098 0.471899 -0.182342 0.196987 13324.9 10778.3)" width="250.33" height="2065.19" rx="83.17" ry="83.17"/>
  <rect class="fil0" transform="matrix(0.534326 0.443938 -0.295573 0.355753 12657.6 11533.9)" width="250.33" height="2065.19" rx="83.17" ry="83.17"/>
  <rect class="fil0" transform="matrix(0.394822 0.463502 -0.149481 0.127331 12768.7 12376.2)" width="250.33" height="2065.19" rx="83.17" ry="83.17"/>
  <rect class="fil0" transform="matrix(0.473482 0.555663 -0.880671 0.734725 14954.3 10557.8)" width="250.33" height="2065.19" rx="83.17" ry="83.17"/>
  <rect class="fil0" transform="matrix(0.301536 0.569943 -0.267362 0.141451 15646.6 11558.5)" width="250.33" height="2065.19" rx="83.17" ry="83.17"/>
  <rect class="fil0" transform="matrix(0.329696 0.568445 -0.33481 0.194188 13450 12698.8)" width="250.33" height="2065.19" rx="83.17" ry="83.17"/>
  <path class="fil0" d="M6869.33 12995.85c-1.82,-10.64 40.67,-108.87 43.63,-123.92 236.72,-1200.82 -488.95,-938.37 -488.95,-1996.89 -106.15,77.77 -153.84,313.31 -186.1,448.82 -113.2,475.58 -135.58,1009.65 134.45,1428.22 168,260.41 236.83,291.31 236.83,715.55 0,163.46 -0.75,272.56 -39.37,410.36 -33.56,119.71 16.16,58.94 -66.45,92.28 136.03,-283.49 -84.88,-814.4 -253.36,-1042.93 -105.22,-142.71 -260.49,-361.12 -275.74,-544.37 -77.4,56.71 -83.43,169.39 -98.54,271.83 -33.58,227.8 -33.73,470.16 -33.73,707.01 0,340.04 423.28,545.11 423.28,925.92 0,230.87 -92.3,524.6 -135.2,737.82 -43.65,216.95 -195.96,1323.45 -172.73,1523.24 8.86,76.17 103.34,183.4 149.11,252.26l127.29 190.17c39.34,60.85 -14.53,21.16 57.98,74.29 0,-744.81 19.43,-2468.45 613.99,-3063.26 306.69,-306.81 587.53,-4.29 1231.02,-620.83 80.62,-77.25 161.35,-63.46 192.03,-178.34 -547.31,0 -853.3,-221.74 -1359.46,280.75 -53.5,53.12 -30.02,45.72 -95.57,89.62 38.09,-163.49 220.82,-461.46 328.05,-571.43l270.05 -179.67c386.07,-187.38 344.61,266.39 1247.32,-551.63 99.89,-90.52 203.74,-104.79 270.98,-205.21 -88.33,-36.49 -579.13,-52.91 -687.83,-52.91 -399.2,0 -767.56,239.7 -925.92,476.19l-30.87 -22.04c-1.07,-59.96 220.38,-451.4 428.43,-585.68 502,-324 811.87,-70.36 1143.89,-364.05 255.57,-226.07 447.62,-609.76 813.04,-694.89 -148.22,-94.05 -912.59,6.97 -1035.48,49.17 -291.77,100.2 -536.82,246.95 -710.55,506.38l37.9 -147.28c196.15,-471.71 689.86,-648.99 1178.97,-646.44 520.04,2.72 313.48,-22.24 711.39,-320.35 54.09,-40.52 86.34,-40.87 108.78,-102.86 -167.65,0 -239.08,19.5 -370.24,26.59 -341.53,18.44 -691.86,-30.8 -996.54,141.03 -53.88,30.38 -32.63,18.68 -61.79,44.02 -46.43,-33.16 -17.75,-26.33 13.31,-66.05 2.92,-3.73 8.32,-10.76 11.43,-15.03 431.62,-593.22 303.43,-243.8 832.17,-411.21 384.18,-121.64 574.89,-453.91 828.05,-732.8 141.18,-155.52 304.22,-207.87 378.53,-309.3 -251.75,0 -788.85,23.29 -1005.91,78.74 -264.94,67.68 -556.44,228.61 -687.21,423.91l89.94 -201.07c474.38,-625.3 209.04,-555.89 349.83,-1105.19 38.19,-149 114.29,-292.57 195.15,-413.32 -235.46,54.86 -495.37,276.06 -668.53,442.58 -272.64,262.19 -389.67,458.79 -389.67,880.17 0,203.94 158.73,288.68 158.73,740.74l-380.4 624.9c189.92,-565.01 -135.59,-740.65 -176.86,-1180.86 -13.35,-142.42 1.7,-148.67 1.7,-317.05 -122.67,82.14 -241.49,257.34 -328.78,385.5 -201.04,295.19 -280.62,745.61 -155.23,1077.19 39.95,105.64 272.37,382 272.37,442.07 0,114.87 -240.73,768.25 -291,873.01l26.99 -237.58c58.72,-577.46 -76.58,-561.65 -273.65,-1023.7 -61.31,-143.73 -70.8,-287.29 -70.8,-484.75 -69.6,28.09 -108.8,128.09 -157.84,212.53 -715,1231.25 -46.46,1506.02 131.38,1771.6l-179.64 614c-68.64,250.54 -110,373.92 -217.18,576.47l-30.87 -22.04z"/>
  <path class="fil0" d="M9545.7 8520.54c258.89,124.22 581.69,-10.5 733.41,-139.6 160.92,-136.93 209.67,-235.76 307.1,-433.64 239.07,-485.53 562.28,-579.01 758.43,-749.51 -474.96,0 -626.14,65.59 -988.58,175.44 -218.73,66.29 -540.93,332.68 -651.62,512.4 -93.27,151.45 -140,409.67 -158.74,634.91z"/>
 </g>
</svg>
