<?xml version="1.0" encoding="UTF-8"?>
<!DOCTYPE svg PUBLIC "-//W3C//DTD SVG 1.1//EN" "http://www.w3.org/Graphics/SVG/1.1/DTD/svg11.dtd">
<!-- Creator: CorelDRAW (Versión de evaluación) -->
<svg xmlns="http://www.w3.org/2000/svg" xml:space="preserve" width="210mm" height="297mm" version="1.1" style="shape-rendering:geometricPrecision; text-rendering:geometricPrecision; image-rendering:optimizeQuality; fill-rule:evenodd; clip-rule:evenodd"
viewBox="0 0 21000 29700"
 xmlns:xlink="http://www.w3.org/1999/xlink"
 xmlns:xodm="http://www.corel.com/coreldraw/odm/2003">
 <defs>
  <style type="text/css">
   <![CDATA[
    .fil0 {fill:#052635}
    .fil1 {fill:#81B528}
   ]]>
  </style>
 </defs>
 <g id="Capa_x0020_1">
  <metadata id="CorelCorpID_0Corel-Layer"/>
  <g id="_2225522382480">
   <path class="fil0" d="M5724.97 18331.62l-26.46 -26.45c-27.04,-29.2 -26.45,46.28 -26.45,-79.37 -51.36,-13.62 -40.93,-4.86 -79.37,-26.45l-26.45 -105.82c-56.93,-39.56 -34.84,-3.87 -52.91,-79.37 -124.62,-83.45 -266.35,-461.64 -265.9,-554.47 0.54,-109.77 17.85,-84.83 26.35,-187.66 5.65,-68.43 -1.93,-141.8 1.39,-210.31 4.89,-100.76 32.12,-280.79 52.97,-370.31 -122.13,10.16 -315.41,104.21 -396.82,158.73 -26.9,-115.44 -239.4,-691.38 -328.08,-1047.58 -49.83,-200.19 -86.18,-350.51 -128.28,-559.55 -39.97,-198.44 -48.39,-499.75 -125.65,-588.64 -273.37,1173.37 148.2,2552.67 751.59,3560.58l458.41 652.7c494.25,505.87 388.62,465.66 963.24,915.06 424.66,332.13 935.61,632.73 1447.52,801.16 1113.08,366.24 2056.55,464.04 3241.8,165.87 650.38,-163.62 1267.86,-419 1814.89,-804.16 152.91,-107.66 711.41,-555.54 809.06,-672.41 504.47,-603.74 659.42,-677.78 1086.68,-1532.38 440.84,-881.78 741.51,-2125.43 511.46,-3112.87 -81.67,59.84 -46.88,61.39 -64.92,199.63 -91.2,698.82 -373.41,1820.09 -666.81,2401.98 -130.56,258.95 -249.58,486.4 -379.38,731.72 -345.21,-231.16 -739.82,-397.98 -1111.5,-581.62 -83.83,-41.42 -138.72,-71.22 -233.99,-109.92l-734.72 -297.03c-96.56,-32.49 -162.87,-64.98 -247.73,-96.18 -170.31,-62.62 -330.17,-114.18 -512.73,-175.11 -1476.75,-492.82 -3263.65,-655.44 -4869.13,-391.74 -436.75,71.73 -458.43,47.92 -491.81,196.02 -29.5,130.9 -39.97,528.08 -78.81,609.02 78.33,-1.74 634.98,-225 946.53,-296.85 428.44,-98.81 816.25,-72.56 1151.26,-119.82l1194.41 60.97c412.9,60.11 710.53,92.09 1083.58,186.27 672.98,169.9 1279.76,352.38 1909.68,603.55 365.82,145.86 1548.36,669.33 1677.5,862.18l-152.63 164.83c-1108.85,-589.6 -2372.2,-1090.76 -4053.72,-1090.76 -1212.53,0 -2714.7,251.86 -3671.18,1037.81 -59.05,48.53 -136.29,115.86 -191.25,152.67 -26.87,-115.33 -31.42,-88.84 -97.52,-167.03 -52.35,-61.92 -78.26,-109.11 -114.12,-176.89z"/>
   <path class="fil1" d="M7762 11664.96c10.14,-121.76 66.75,-271.87 76.76,-401.24 22.41,-289.92 -174.82,-572.3 -219.63,-752.35 -44.91,-180.46 -15.86,-250.3 -15.86,-433.71 -48.83,32.69 -84.65,62.75 -124.97,113.12 -365.57,456.69 -633.18,1024.61 -234.48,1569.08 36.91,50.4 69.42,82.4 104.96,133.86 103.46,149.79 -14.71,298.38 -106.47,574.3 -43.94,132.14 -27.13,133.85 -95.74,274.63l-36.33 69.49c-1.96,3.58 -5.93,11.53 -9.61,16.84 4.76,-213.56 136.81,-503.25 -61.17,-891.22 -175.22,-343.35 -256.29,-344.53 -256.29,-828.36 -120.13,48.49 -210.83,325.97 -273.29,441 -60.41,111.24 -80.35,120.35 -120.91,249.46 -279.64,890.29 226.93,1083.38 367.74,1293.67 -24.25,104.11 -46.51,189.33 -83.55,286.81 -84.26,221.75 -160.23,701.13 -313.27,877.21 0,-321.57 173.56,-652.98 -106.45,-1136.94 -79.73,-137.81 -187.89,-231.98 -273.12,-388.26 -90.96,-166.8 -96.62,-343.09 -96.62,-591.2 -58.02,42.51 -57.61,73.42 -87.7,150.39 -212.7,544.03 -289.21,1279.96 68.48,1773.58 185.84,256.46 226.88,345.65 204.57,774.6l-45.46 324.92c-28.37,72.94 7.45,44.31 -60.53,71.75 57.55,-119.95 19.25,-352.66 2.22,-478.41 -58.54,-432.48 -506.4,-809.46 -531.32,-1108.9 -144.2,105.65 -132.6,700.96 -133.36,874.1 -1.63,373.74 215.75,533.11 318.05,687.24 211.93,319.29 53.56,647.11 -33.32,1103.26l-117.86 887.43c-14.62,112.35 1.19,222.65 -10.64,333.44 -8,74.94 -41.09,232.57 -40.32,265.52 2.37,100.04 66.68,101.23 96.82,214.09 56.92,39.56 34.83,3.87 52.91,79.37 55.84,40.92 67.41,74.92 105.82,132.27 27.04,29.2 26.45,-46.28 26.45,79.37l26.46 26.45 28.41 -156.77c12.08,-876.66 -7.71,-931.52 163.81,-1873.23 29.9,-164.16 104.02,-414.91 170.06,-570.68 300.44,-708.6 503.87,-583.84 822.08,-659.4 400.49,-95.08 556.44,-351 792.7,-503.6 77.21,-49.88 55.88,15.67 86.43,-98.75 -478.35,0 -828.17,-213.64 -1318.73,242.12 -5.63,5.23 -21.96,20.09 -27.47,25.44l-108.83 102.81c43.52,-186.79 241.67,-504.42 383.59,-621.71 13.01,-10.75 50.46,-38.87 60.38,-45.43 48.16,-31.89 97.47,-56.46 154.13,-83.96 386.99,-187.82 335.37,274.77 1247.32,-551.63 99.89,-90.52 203.74,-104.79 270.98,-205.21 -63.16,-26.09 -698.72,-65.78 -923.17,-23.7 -391.81,73.46 -517.76,304.8 -690.58,420.53 27.17,-326.59 408.09,-650.37 735.93,-745.54 169.68,-49.26 541.14,34.09 805.52,-199.78 166.55,-147.32 476.76,-616.55 813.04,-694.89 -113.29,-71.89 -1032.12,-69.79 -1428.99,237.67 -45.65,35.36 -118.39,91.71 -160.34,130.67l-74.73 84c-46.92,53.6 -20.1,35.33 -81.97,76.76 31.2,-133.91 52.59,-170.92 124.4,-272.43 125.75,-177.8 5.4,-51.22 185.93,-210.89 516.78,-457.09 1051.78,-167.32 1286.79,-326.98 86.09,-58.48 131,-112.05 217.01,-179.81l176.8 -140.66c45.02,-40.7 22.85,4.55 46.11,-59.71 -225.51,0 -887.96,14.37 -1117.28,73.2 -124.31,31.88 -199.69,85.99 -311.29,111.99 51.27,-96.89 92.24,-173.85 166.34,-256.95l111.53 -100.1c221.51,-167.72 452.56,58.86 875.39,-262.18 265.38,-201.49 242.55,-264.79 427.62,-471.85 38.63,-43.22 63.26,-62.59 104.08,-107.56 249.88,-275.27 259.93,-147.43 378.53,-309.3 -198.58,0 -826.35,32.87 -1005.91,78.74 -198.39,50.68 -378.54,136.98 -532.91,260.75 -64.38,51.63 -85.1,90.36 -154.3,136.7 50.25,-215.69 326.27,-324.32 390.82,-773.2 51.09,-355.31 -27.79,-513.89 244.1,-919.92 -122.45,28.53 -252.93,120.87 -343.85,185.25 -48.15,34.09 -99.13,72.07 -150.58,113.97 -249.53,203.22 -545.56,452.71 -564.36,837.91 -21.57,441.67 219.67,569.25 157.29,923.1l-394.8 717.55z"/>
   <path class="fil0" d="M7682.64 15527.39l0 317.46c0,147.75 300.56,59.89 317.46,52.91 0,-656.64 8.77,-721.85 281.72,-1226.21 229.43,-423.93 674.95,-721.7 1136.46,-874.12 421.85,-139.33 873.98,-87.03 1283.94,59.58 447.09,159.9 827.78,531.96 1045.73,964.86 236.01,468.79 315.18,1158.25 88.13,1631.45 64.75,34.26 203.61,98.54 291,105.82 284.03,-536.79 186.85,-1427.38 -147.33,-2021.98 -284.13,-505.52 -875.33,-982.35 -1454.38,-1085.3 -984.51,-175.05 -1705.57,86.93 -2281.28,705.77 -142.12,152.76 -391.96,591.5 -459.35,810.49 -39.35,127.9 -102.1,391.81 -102.1,559.27z"/>
   <path class="fil0" d="M6015.97 17537.97l0 687.83c307.31,-205.78 533.47,-421.97 962.35,-572.04 617.54,-216.08 955.6,-392.49 1738.35,-457.42 387.94,-32.18 790.96,-28.74 1214.64,-28.74l0 -26.45c-149.43,0 -314.38,-52.57 -450.51,-66.59 -689.92,-71.03 -1453.11,-66.52 -2163.97,18.24 -255.9,30.52 -685.01,145.86 -919.33,244.69 -174.63,73.64 -240.95,106.35 -381.53,200.48z"/>
   <path class="fil1" d="M9005.39 9786.65c258.89,124.23 581.69,-10.5 733.41,-139.6 367.74,-312.91 252.85,-680.11 941.73,-1095.31 47.27,-28.49 19.42,-7.65 65.51,-40.31 28.36,-20.1 39.98,-31.61 58.29,-47.53 -255.25,0 -616.03,43.68 -828.09,124.29 -67.06,25.49 -86.31,28.67 -160.49,51.15 -116.96,35.44 -172.44,76.84 -260.46,136.36 -125.53,84.89 -315.91,253.87 -391.16,376.04 -93.27,151.45 -140,409.68 -158.74,634.91z"/>
   <path class="fil0" d="M9984.22 13119.98c167.78,0 107.61,-262.59 105.47,-635.27l26.81 -713.93c0,-246.92 0.14,-493.83 0,-740.75 -0.17,-274.24 26.46,-443.58 26.46,-714.28 -127.57,10.62 -209.17,57.93 -222.24,152.26 -53.51,386.04 19.12,2033.26 -19.94,2357.32 -12.03,99.82 -72.55,294.65 83.44,294.65z"/>
   <path class="fil0" d="M14164.12 11982.42l-813.19 694.75c-61.85,60.25 -131.31,110.34 -203.63,166.73l-185.61 158.32c-4.19,3.53 -10.3,8.42 -14.5,11.94 -4.21,3.53 -10.32,8.42 -14.51,11.95l-84.48 74.26c-43.16,39.54 -50.3,47.07 -98.16,87.02 -119.51,99.74 -163.14,102.48 -173.22,223.6 134.23,89.88 167.94,57.33 290.03,-53.86l853.45 -707.42c24.38,-22.14 28.78,-27.58 54.9,-50.92l128.81 -109.28c24.18,-21.35 30.48,-28.82 55.02,-50.81l239.37 -210.36c130.9,-110.1 286.49,-208.01 362.54,-351.74l-35.87 -43.49c-3.2,-3.39 -9.07,-10.16 -12.69,-13.77 -33.33,-33.29 -21.14,-24.38 -57.26,-48.56 -110.9,29.61 -202.95,152.68 -291,211.64z"/>
   <path class="fil0" d="M15063.59 15077.66c6.92,-310.57 -2.19,-169.76 -719.04,-84.13 -234.75,28.05 -441.7,77.99 -637.11,103.63l-646.69 94.06c-206.75,34.5 -511.89,32.15 -501.1,177.34 10.65,143.25 406.39,36.86 580.21,7.59l1607.79 -244.07c119.37,-15.86 210.19,-45.62 315.94,-54.42z"/>
   <path class="fil0" d="M12682.64 15818.4c0,155.3 -61.49,160.72 396.69,185.31 214.47,11.51 397.53,1.3 586.01,22.46 217.46,24.42 619.49,-7.13 870.52,4.98 143.56,6.92 116.47,30.13 236.72,-27.57l0 -132.27c-258.79,-60.3 -1433.23,-48.32 -1851.34,-61.16 -68.93,-2.12 -104.5,-43.8 -238.6,8.25z"/>
   <path class="fil0" d="M10883.7 11453.32c0,53.46 64.68,52.91 105.82,52.91 125.6,0 178.77,-538.64 227.71,-751.13 41.39,-179.74 174.58,-646.25 142.66,-783.26 -221.22,-52.96 -173.4,-48.53 -328.17,677.12l-148.02 804.36z"/>
   <path class="fil0" d="M14164.12 14416.28c236.91,0 725.61,-195.2 999.72,-270.12 123.64,-33.8 227.29,-49.69 296.57,-153.16 -16.2,-69.57 -24.05,-77.74 -52.91,-132.28l-714.27 211.66c-114.85,42.59 -214.14,70.25 -341.02,108.72 -167.39,50.74 -234.88,34.36 -188.09,235.18z"/>
   <path class="fil0" d="M12497.45 14945.38c113.7,0 686.98,-216.22 843.55,-267.57 429.72,-140.91 165.74,-261.53 161.74,-261.53 -84.17,0 -823.7,271.1 -950.7,319.51 -177.96,67.82 -126.27,209.59 -54.59,209.59z"/>
   <path class="fil0" d="M12497.45 16373.95c0,115.38 350.35,158.77 540.17,200.57 171.74,37.82 488.69,119.06 623.85,90.44l29.7 -104.8c-103.76,-104.74 -304.15,-119.59 -441.63,-144.65 -69.59,-12.68 -112.55,-27.59 -173.52,-38.12 -322.13,-55.64 -578.57,-185.4 -578.57,-3.44z"/>
   <path class="fil0" d="M11386.34 12537.97c0,81.45 36.65,79.37 105.82,79.37 74.98,0 107.75,-100.39 147.78,-169.68 45.22,-78.26 66.29,-128.91 107.67,-209.8 183.41,-358.58 346.23,-486.39 88.47,-546.45 -107.21,71.79 -130.61,181.23 -246.57,388.35 -48.76,87.09 -203.17,365.19 -203.17,458.21z"/>
   <path class="fil0" d="M11597.98 13622.63c83.8,0 225.88,-190.49 281.78,-273.78l281.65 -327.7c143.12,-168.47 30.93,-375.87 -238.18,-52.11 -117.49,141.36 -625.52,653.59 -325.25,653.59z"/>
   <path class="fil0" d="M10460.42 13172.89c194.48,46.56 167.31,67.95 275.25,-359.66 33.3,-131.92 95.12,-351.49 95.12,-486.9 -98.09,-26.19 -34.2,-26.72 -132.28,-52.91 -93.17,139.13 -84.4,245.18 -135.13,420.42 -34.15,117.96 -102.96,333.79 -102.96,479.05z"/>
   <path class="fil0" d="M6412.8 15633.21c246.71,0 732.41,-7.83 925.92,-52.91 48.23,-206.99 25.68,-161.05 -422.02,-158.18 -294.78,1.9 -443.68,-47.4 -503.9,211.09z"/>
   <path class="fil0" d="M13370.47 13913.63c107.84,0 714.28,-275.75 714.28,-370.37 0,-161.31 -107.42,-135.5 -211.6,-81.58l-490.15 253.3c-88.79,53.43 -80.76,17.51 -91.68,97.51 -9.95,72.89 13.35,101.14 79.15,101.14z"/>
   <path class="fil0" d="M12232.9 14469.19c176.4,0 218.98,-59.36 391.84,-163.72 416.35,-251.37 364.34,-185.56 322.45,-365.38 -196.99,0 -192.73,46.12 -441.48,193.45 -307.19,181.94 -310.47,173.99 -272.81,335.65z"/>
   <path class="fil0" d="M9217.03 12458.61c-35.92,169.6 60.73,547.2 105.82,740.74 370.94,0 79.36,-250.95 79.36,-740.74 -80.33,-18.72 -104.98,-31.13 -185.18,0z"/>
   <path class="fil0" d="M13132.37 11612.05c304.95,0 247.05,-164.56 431.78,-335.42 63.15,-58.4 97.32,-43.6 97.32,-167.23 0,-101.27 12.21,-9.84 -37.08,-68.74 -3.16,-3.78 -9.91,-10.06 -13.06,-13.41 -3.16,-3.36 -11.51,-9.61 -14.23,-12.24 -2.74,-2.64 -10.25,-7.31 -14.99,-11.43 -96.3,25.72 -326.05,300.21 -416.15,405.22 -89.8,104.68 -58.42,96.68 -33.59,203.25z"/>
   <path class="fil0" d="M4349.31 14072.36l608.46 185.19c79.53,0 115.7,-83.63 89.89,-141 -37.86,-84.16 -618.93,-229.37 -618.99,-229.37 -102.76,0 -79.36,87.63 -79.36,185.18z"/>
   <path class="fil0" d="M4640.31 12881.89c86.06,99.01 468.16,332.24 608.47,343.91 28.85,-54.53 36.7,-62.7 52.91,-132.27 -70.27,-104.93 -450.18,-313.2 -582.01,-343.92 -35.24,52.62 -48.16,73.3 -79.37,132.28z"/>
   <path class="fil0" d="M12285.81 11030.04c119.91,0 323.14,-519.27 343.92,-608.47 -57.05,-38.2 -77.84,-60.52 -158.73,-79.36l-176.23 352.88c-38.41,80.42 -216.59,334.95 -8.96,334.95z"/>
   <path class="fil0" d="M12418.09 12458.61c0,59.31 20.93,58.07 52.91,105.82 132.64,-11.04 242.46,-172.32 344.32,-290.6 3.57,-4.14 8.69,-10.05 12.26,-14.2 208.89,-242.91 -0.01,-342.89 -190.13,-110.78 -86.71,105.85 -219.36,228.16 -219.36,309.76z"/>
   <path class="fil0" d="M14560.94 13119.98c0,185.17 219.55,38.11 291.33,0.39 125.06,-65.71 290.68,-136.62 290.68,-212.03 0,-249.75 -355.4,15.83 -371.75,25.07 -70.35,39.76 -210.26,85.66 -210.26,186.57z"/>
   <path class="fil0" d="M11095.34 13384.53c105.01,0 431.64,-529.1 185.18,-529.1 -96.52,0 -433.23,529.1 -185.18,529.1z"/>
   <path class="fil0" d="M11888.99 13940.09l101.74 83.87c90.92,-27.44 324.06,-258.79 347.99,-348.42 -146.45,-154.4 -185.34,-66.18 -311.2,59.17 -78.35,78.03 -110.62,85.55 -138.53,205.38z"/>
   <path class="fil0" d="M5539.78 12194.06l111.7 -99.94c-20.8,-77.68 -151.69,-217.63 -220.91,-267.04 -49.52,-35.35 -73.79,-29.86 -128.88,-56.3 -154.06,230.05 -34.63,196.47 111.98,337.75 66.21,63.81 33.6,60.83 126.11,85.53z"/>
   <path class="fil0" d="M6042.43 11056.49c0,98.65 240.25,352.57 264.55,370.37l138.28 -126.26c-86.6,-124.58 -193.23,-323.47 -323.47,-323.47 -60.95,0 -79.36,18.41 -79.36,79.36z"/>
   <path class="fil0" d="M4931.32 15950.67c0,128.35 152.79,93.08 199.05,87.76 267.25,-30.74 303.59,70.87 303.59,-193.58 -262.27,0 -502.64,-48.74 -502.64,105.82z"/>
   <path class="fil0" d="M4666.77 14998.29c0,127.64 127.23,132.28 396.82,132.28 68.35,0 52.91,-116.87 52.91,-185.19 -188.19,0 -449.73,-96.09 -449.73,52.91z"/>
   <path class="fil0" d="M8655.46 13061.06c84.54,343.06 182.66,318.62 323.47,244.11 -33.59,-144.19 -77.33,-298.15 -185.18,-370.37l-138.29 126.26z"/>
   <path class="fil0" d="M14560.94 16903.05l52.91 0c43.24,-81.72 163.13,-227.98 -291,-238.09 -50.31,104.84 -79.94,131.35 4.71,178.01 20.11,11.09 203.71,60.08 233.38,60.08z"/>
   <polygon class="fil0" points="14164.12,11982.42 14164.12,11955.96 14133.25,11978.01 "/>
   <polygon class="fil0" points="13423.38,18993 13423.38,18966.54 13392.51,18988.59 "/>
  </g>
 </g>
</svg>
